ISO-10303-21;
HEADER;
FILE_DESCRIPTION(('STEP AP214'),'1');
FILE_NAME('NOVANozzleWall','1970-01-01T00:00:00',(''),(''),'NOVA','NOVA nozzle design suite','');
FILE_SCHEMA(('AUTOMOTIVE_DESIGN'));
ENDSEC;
DATA;
#1 = (LENGTH_UNIT()NAMED_UNIT(*)SI_UNIT(.MILLI.,.METRE.));
#2 = (NAMED_UNIT(*)PLANE_ANGLE_UNIT()SI_UNIT($,.RADIAN.));
#3 = (NAMED_UNIT(*)SI_UNIT($,.STERADIAN.)SOLID_ANGLE_UNIT());
#4 = UNCERTAINTY_MEASURE_WITH_UNIT(LENGTH_MEASURE(1.E-07),#1,'distance_accuracy_value','confusion accuracy');
#5 = (GEOMETRIC_REPRESENTATION_CONTEXT(3)GLOBAL_UNCERTAINTY_ASSIGNED_CONTEXT((#4))GLOBAL_UNIT_ASSIGNED_CONTEXT((#1,#2,#3))REPRESENTATION_CONTEXT('',''));
#6 = CARTESIAN_POINT('',(0.,0.,0.));
#7 = DIRECTION('',(0.,0.,1.));
#8 = DIRECTION('',(1.,0.,0.));
#9 = AXIS2_PLACEMENT_3D('',#6,#7,#8);
#10 = CARTESIAN_POINT('',(352.399207251,0.,90.));
#11 = CARTESIAN_POINT('',(344.244279503,0.,90.));
#12 = CARTESIAN_POINT('',(332.011887881,0.,90.));
#13 = CARTESIAN_POINT('',(315.702032385,0.,90.));
#14 = CARTESIAN_POINT('',(303.469640763,0.,90.0000000002));
#15 = CARTESIAN_POINT('',(291.237249141,0.,89.9999999994));
#16 = CARTESIAN_POINT('',(279.004857519,0.,90.0000000021));
#17 = CARTESIAN_POINT('',(266.772465897,0.,89.9999999921));
#18 = CARTESIAN_POINT('',(254.540074275,0.,90.0000000294));
#19 = CARTESIAN_POINT('',(242.307682654,0.,89.9999998903));
#20 = CARTESIAN_POINT('',(230.07529103,0.,90.0000004095));
#21 = CARTESIAN_POINT('',(217.842899416,0.,89.9999984718));
#22 = CARTESIAN_POINT('',(205.610507764,0.,90.0000057032));
#23 = CARTESIAN_POINT('',(193.378116253,0.,89.9999787153));
#24 = CARTESIAN_POINT('',(181.145724219,0.,90.0000794356));
#25 = CARTESIAN_POINT('',(168.913334136,0.,89.9997035424));
#26 = CARTESIAN_POINT('',(156.68093677,0.,90.001106395));
#27 = CARTESIAN_POINT('',(144.448566585,0.,89.9958708777));
#28 = CARTESIAN_POINT('',(132.216094956,0.,90.0154100943));
#29 = CARTESIAN_POINT('',(119.984028035,0.,89.9424889008));
#30 = CARTESIAN_POINT('',(107.755038332,0.,90.2145335076));
#31 = CARTESIAN_POINT('',(95.535824407,0.,89.1141765732));
#32 = CARTESIAN_POINT('',(83.666283224,0.,85.9350382637));
#33 = CARTESIAN_POINT('',(72.543223521,0.,80.7604290806));
#34 = CARTESIAN_POINT('',(62.061422838,0.,74.4589447523));
#35 = CARTESIAN_POINT('',(51.4607551797,0.,68.3520406327));
#36 = CARTESIAN_POINT('',(40.9022444587,0.,62.1942411735));
#37 = CARTESIAN_POINT('',(30.211129673,0.,56.2097014756));
#38 = CARTESIAN_POINT('',(18.5333501933,0.,52.315538048));
#39 = CARTESIAN_POINT('',(6.55504310437,0.,50.2325852171));
#40 = CARTESIAN_POINT('',(-6.0020488108,0.,50.3353006081));
#41 = CARTESIAN_POINT('',(-16.7330344899,0.,56.6524874064));
#42 = CARTESIAN_POINT('',(-27.4366392044,0.,62.3964352273));
#43 = CARTESIAN_POINT('',(-38.0388286394,0.,68.5378640278));
#44 = CARTESIAN_POINT('',(-48.6048831868,0.,74.6907150311));
#45 = CARTESIAN_POINT('',(-59.1534175892,0.,80.8871205985));
#46 = CARTESIAN_POINT('',(-69.7068535452,0.,87.0715267592));
#47 = CARTESIAN_POINT('',(-80.2783931455,0.,93.2259612019));
#48 = CARTESIAN_POINT('',(-90.8796500419,0.,99.3288475219));
#49 = CARTESIAN_POINT('',(-101.518405446,0.,105.366246803));
#50 = CARTESIAN_POINT('',(-112.20178688,0.,111.324361105));
#51 = CARTESIAN_POINT('',(-122.935135863,0.,117.192027394));
#52 = CARTESIAN_POINT('',(-133.722606391,0.,122.959665261));
#53 = CARTESIAN_POINT('',(-144.56996763,0.,128.61390927));
#54 = CARTESIAN_POINT('',(-155.476559449,0.,134.153033346));
#55 = CARTESIAN_POINT('',(-166.441968601,0.,139.574808654));
#56 = CARTESIAN_POINT('',(-177.463640163,0.,144.881206458));
#57 = CARTESIAN_POINT('',(-188.535204511,0.,150.082658576));
#58 = CARTESIAN_POINT('',(-199.655574215,0.,155.17894677));
#59 = CARTESIAN_POINT('',(-210.822850113,0.,160.171583453));
#60 = CARTESIAN_POINT('',(-222.034206767,0.,165.064418125));
#61 = CARTESIAN_POINT('',(-233.288255815,0.,169.858222844));
#62 = CARTESIAN_POINT('',(-244.582258501,0.,174.557108947));
#63 = CARTESIAN_POINT('',(-255.91507718,0.,179.161579893));
#64 = CARTESIAN_POINT('',(-267.28441595,0.,183.675099052));
#65 = CARTESIAN_POINT('',(-278.688708285,0.,188.099550941));
#66 = CARTESIAN_POINT('',(-290.126551188,0.,192.436514255));
#67 = CARTESIAN_POINT('',(-301.596050705,0.,196.689042485));
#68 = CARTESIAN_POINT('',(-313.096245427,0.,200.857834873));
#69 = CARTESIAN_POINT('',(-324.625259499,0.,204.946239194));
#70 = CARTESIAN_POINT('',(-336.182324059,0.,208.954653442));
#71 = CARTESIAN_POINT('',(-347.765671849,0.,212.886457824));
#72 = CARTESIAN_POINT('',(-359.37465094,0.,216.741917324));
#73 = CARTESIAN_POINT('',(-371.007696518,0.,220.524128222));
#74 = CARTESIAN_POINT('',(-382.664148062,0.,224.233569612));
#75 = CARTESIAN_POINT('',(-394.342710075,0.,227.872789347));
#76 = CARTESIAN_POINT('',(-406.042659498,0.,231.442645378));
#77 = CARTESIAN_POINT('',(-417.7629644,0.,234.945082414));
#78 = CARTESIAN_POINT('',(-429.502839298,0.,238.381346291));
#79 = CARTESIAN_POINT('',(-441.261476504,0.,241.752838645));
#80 = CARTESIAN_POINT('',(-453.038061395,0.,245.061088121));
#81 = CARTESIAN_POINT('',(-464.831936815,0.,248.307150826));
#82 = CARTESIAN_POINT('',(-476.642334388,0.,251.49256749));
#83 = CARTESIAN_POINT('',(-488.468638989,0.,254.618404867));
#84 = CARTESIAN_POINT('',(-500.310222196,0.,257.68584586));
#85 = CARTESIAN_POINT('',(-512.166419713,0.,260.696301384));
#86 = CARTESIAN_POINT('',(-524.036778098,0.,263.650419166));
#87 = CARTESIAN_POINT('',(-535.920595453,0.,266.549914108));
#88 = CARTESIAN_POINT('',(-547.817502331,0.,269.39522087));
#89 = CARTESIAN_POINT('',(-559.726888722,0.,272.187824474));
#90 = CARTESIAN_POINT('',(-571.648317657,0.,274.928561395));
#91 = CARTESIAN_POINT('',(-583.581369023,0.,277.618236849));
#92 = CARTESIAN_POINT('',(-595.52551843,0.,280.258187771));
#93 = CARTESIAN_POINT('',(-607.48044581,0.,282.848890089));
#94 = CARTESIAN_POINT('',(-619.445686028,0.,285.391530816));
#95 = CARTESIAN_POINT('',(-631.420872752,0.,287.886903024));
#96 = CARTESIAN_POINT('',(-643.405654989,0.,290.335770698));
#97 = CARTESIAN_POINT('',(-655.399667926,0.,292.739016035));
#98 = CARTESIAN_POINT('',(-667.40255931,0.,295.09751448));
#99 = CARTESIAN_POINT('',(-679.414037479,0.,297.411881768));
#100 = CARTESIAN_POINT('',(-691.433786397,0.,299.682897226));
#101 = CARTESIAN_POINT('',(-703.461446336,0.,301.911632695));
#102 = CARTESIAN_POINT('',(-715.496845335,0.,304.098188959));
#103 = CARTESIAN_POINT('',(-727.539619583,0.,306.243744));
#104 = CARTESIAN_POINT('',(-739.589476909,0.,308.34915963));
#105 = CARTESIAN_POINT('',(-751.646320473,0.,310.414177743));
#106 = CARTESIAN_POINT('',(-763.709712922,0.,312.440617767));
#107 = CARTESIAN_POINT('',(-779.803035005,0.,315.089428495));
#108 = CARTESIAN_POINT('',(-791.880751321,0.,317.029134017));
#109 = CARTESIAN_POINT('',(-799.943853081,0.,318.25015457));
#110 = B_SPLINE_CURVE_WITH_KNOTS('',3,(#10,#11,#12,#13,#14,#15,#16,#17,#18,#19,#20,#21,#22,#23,#24,#25,#26,#27,#28,#29,#30,#31,#32,#33,#34,#35,#36,#37,#38,#39,#40,#41,#42,#43,#44,#45,#46,#47,#48,#49,#50,#51,#52,#53,#54,#55,#56,#57,#58,#59,#60,#61,#62,#63,#64,#65,#66,#67,#68,#69,#70,#71,#72,#73,#74,#75,#76,#77,#78,#79,#80,#81,#82,#83,#84,#85,#86,#87,#88,#89,#90,#91,#92,#93,#94,#95,#96,#97,#98,#99,#100,#101,#102,#103,#104,#105,#106,#107,#108,#109),.UNSPECIFIED.,.F.,.F.,(4,1,1,1,1,1,1,1,1,1,1,1,1,1,1,1,1,1,1,1,1,1,1,1,1,1,1,1,1,1,1,1,1,1,1,1,1,1,1,1,1,1,1,1,1,1,1,1,1,1,1,1,1,1,1,1,1,1,1,1,1,1,1,1,1,1,1,1,1,1,1,1,1,1,1,1,1,1,1,1,1,1,1,1,1,1,1,1,1,1,1,1,1,1,1,1,1,4),(0.,0.020205727756,0.030308591634,0.040411455512,0.05051431939,0.060617183268,0.070720047147,0.080822911025,0.090925774903,0.101028638781,0.111131502659,0.121234366537,0.131337230415,0.141440094293,0.151542958171,0.161645822049,0.171748685927,0.181851549805,0.191954413684,0.202057212868,0.21214895235,0.222240769676,0.232332561434,0.242435367507,0.252538229649,0.262641073858,0.272737255139,0.28282906831,0.292920870441,0.302941055669,0.313006592001,0.323109262777,0.333212079159,0.343314932443,0.353417796015,0.363520658326,0.373623516008,0.383726366869,0.39382921106,0.403932048553,0.414034879264,0.42413770232,0.43424051945,0.444343335538,0.454446151796,0.464548975494,0.474651800368,0.484754627572,0.494857455466,0.504960286393,0.515063119376,0.525165953559,0.53526879003,0.5453716268,0.555474465813,0.565577305241,0.575680146785,0.58578298903,0.595885832822,0.605988677414,0.616091523067,0.626194369449,0.636297216747,0.646400064713,0.656502913547,0.666605763027,0.676708613194,0.686811463994,0.69691431539,0.707017167373,0.71712001983,0.727222872847,0.737325726236,0.747428580132,0.757531434385,0.767634289043,0.777737144109,0.787839999443,0.797942855235,0.80804571125,0.818148567624,0.828251424281,0.83835428118,0.848457138402,0.858559995827,0.868662853501,0.878765711415,0.888868569516,0.8989714278,0.909074286326,0.919177145017,0.929280003834,0.939382862949,0.949485722145,0.95958858146,0.969691441048,0.979794300823,1.),.UNSPECIFIED.);
#111 = CARTESIAN_POINT('',(0.,0.,0.));
#112 = DIRECTION('',(1.,0.,0.));
#113 = AXIS1_PLACEMENT('',#111,#112);
#114 = SURFACE_OF_REVOLUTION('',#110,#113);
#115 = CARTESIAN_POINT('',(352.399207251,0.,0.));
#116 = DIRECTION('',(1.,0.,0.));
#117 = DIRECTION('',(0.,0.,1.));
#118 = AXIS2_PLACEMENT_3D('',#115,#116,#117);
#119 = CIRCLE('',#118,90.);
#120 = CARTESIAN_POINT('',(-799.943853081,0.,0.));
#121 = DIRECTION('',(1.,0.,0.));
#122 = DIRECTION('',(0.,0.,1.));
#123 = AXIS2_PLACEMENT_3D('',#120,#121,#122);
#124 = CIRCLE('',#123,318.25015457);
#125 = CARTESIAN_POINT('',(352.399207251,0.,90.));
#126 = CARTESIAN_POINT('',(-799.943853081,0.,318.25015457));
#127 = VERTEX_POINT('',#125);
#128 = VERTEX_POINT('',#126);
#129 = EDGE_CURVE('',#127,#128,#110,.T.);
#130 = EDGE_CURVE('',#127,#127,#119,.T.);
#131 = EDGE_CURVE('',#128,#128,#124,.T.);
#132 = ORIENTED_EDGE('',*,*,#129,.T.);
#133 = ORIENTED_EDGE('',*,*,#129,.F.);
#134 = ORIENTED_EDGE('',*,*,#131,.T.);
#135 = ORIENTED_EDGE('',*,*,#130,.F.);
#136 = EDGE_LOOP('',(#132,#134,#133,#135));
#137 = FACE_OUTER_BOUND('',#136,.T.);
#138 = ADVANCED_FACE('',(#137),#114,.T.);
#139 = OPEN_SHELL('',(#138));
#140 = SHELL_BASED_SURFACE_MODEL('',(#139));
#141 = APPLICATION_CONTEXT('automotive design');
#142 = APPLICATION_PROTOCOL_DEFINITION('international standard','automotive_design',2000,#141);
#143 = PRODUCT_CONTEXT('',#141,'mechanical');
#144 = PRODUCT('NOVANozzleWall','NOVANozzleWall','',(#143));
#145 = PRODUCT_RELATED_PRODUCT_CATEGORY('part','',(#144));
#146 = PRODUCT_DEFINITION_FORMATION('','',#144);
#147 = PRODUCT_DEFINITION_CONTEXT('part definition',#141,'design');
#148 = PRODUCT_DEFINITION('design','',#146,#147);
#149 = PRODUCT_DEFINITION_SHAPE('','',#148);
#150 = MANIFOLD_SURFACE_SHAPE_REPRESENTATION('NOVANozzleWall',(#9,#140),#5);
#151 = SHAPE_DEFINITION_REPRESENTATION(#149,#150);
ENDSEC;
END-ISO-10303-21;
